<?xml version="1.0" encoding="utf-8"?>
<!-- Generator: Adobe Illustrator 15.0.0, SVG Export Plug-In . SVG Version: 6.00 Build 0)  -->
<!DOCTYPE svg PUBLIC "-//W3C//DTD SVG 1.1//EN" "http://www.w3.org/Graphics/SVG/1.1/DTD/svg11.dtd">
<svg version="1.1" id="Layer_2" xmlns="http://www.w3.org/2000/svg" xmlns:xlink="http://www.w3.org/1999/xlink" x="0px" y="0px"
	 width="1100px" height="716px" viewBox="0 0 1100 716" enable-background="new 0 0 1100 716" xml:space="preserve">
<g>
	<g>
		<ellipse opacity="0.2" cx="548.691" cy="532.093" rx="410.209" ry="31.461"/>
		<path fill="#414042" d="M140.666,204.059c11.237,4.162,21.723-0.591,20.152-12.071c-1.385-10.146-11.934-18.71-19.958-25.378
			c-10.654-8.857-21.691-24.631-34.815-29.098c-18.955-6.443-19.182,16.629-11.648,28.607
			C103.396,180.434,125.411,198.414,140.666,204.059z"/>
		<path fill="#8E5225" d="M955.477,192.352c-11.557,2.976-21.459-2.803-18.734-14.01c2.406-9.907,13.725-17.317,22.352-23.106
			c11.461-7.686,23.994-22.186,37.449-25.272c19.434-4.455,17.307,18.422,8.627,29.52
			C994.797,172.744,971.158,188.314,955.477,192.352z"/>
		<g>
			<g>
				<path fill="#8E5225" d="M936.746,155.282c-17.588-9.901-36.438-8.493-55.854-8.818c-18.377-0.307-37.621,8.628-48.029,23.052
					c-9.326,12.92-8.695,42.178,2.787,54.173c14.514,15.165,45.721,13.665,65.813,13.806c18.541,0.127,35.318-7.602,47.061-20.893
					c8.83-9.992,13.395-35.79,6.668-48.241C951.713,161.928,943.494,159.082,936.746,155.282z"/>
				<path fill="#512E14" d="M956.266,170.709c-0.32-0.824-0.676-1.613-1.074-2.349c-3.479-6.433-11.697-9.278-18.445-13.078
					c-17.588-9.901-36.438-8.493-55.854-8.818c-18.377-0.307-37.621,8.628-48.029,23.052c-1.244,1.723-2.301,3.738-3.188,5.961
					c6.203,6.482,12.123,10.68,18.383,13.395c4.523,4.843,10.371,8.783,17.211,11.335c7.68,2.866,14.768,4.882,23.064,4.979
					c13.133,0.158,28.693-0.717,39.676-8.801c2.545-1.873,4.516-4.683,6.016-7.955C942.725,185.053,950.299,179.574,956.266,170.709
					z"/>
				<path fill="#8E5225" d="M960.754,73.406c11.975,20.378,9.381,58.38,3.088,76.447c-0.982,2.818-2.113,5.578-3.408,8.26
					c-14.504,30.068-42.797,30.47-74.023,30.428c-26.279-0.031-41.15-0.836-58.918-20.73
					c-14.111-15.795-12.641-39.396-11.936-59.251c1.523-42.829,46.807-56.411,83.258-54.993
					c17.396,0.679,40.301,0.373,54.361,11.042C956.176,66.885,958.682,69.883,960.754,73.406z"/>
				<path fill="#FBB040" d="M847.631,183.117c4.574,5.049,10.588,9.152,17.639,11.784c7.68,2.865,14.768,4.878,23.064,4.978
					c13.133,0.158,28.693-0.719,39.676-8.801c8.652-6.368,10.84-23.454,9.5-33.357c-1.471-10.889-5.391-22.146-15.83-27.045
					c-10.574-4.961-20.248-10.294-32.25-10.392c-5.926-0.048-11.137-0.01-16.713,1.948c-8.391,2.946-21.197,6.595-26.785,13.994
					C833.748,152.37,836.314,170.637,847.631,183.117z"/>
				<g>
					<path d="M907.807,142.91c0,4.926-8.955,8.92-19.998,8.92c-11.041,0-19.992-3.994-19.992-8.92c0-4.928,8.951-8.922,19.992-8.922
						C898.852,133.988,907.807,137.982,907.807,142.91z"/>
					<path d="M898.82,180.127c-1.557,0-3.094-0.269-4.541-0.824c-4.111-1.573-7.359-5.041-9.385-10.02
						c-2.682-6.582-2.762-15.068-0.199-20.639c0.398-0.871,1.43-1.254,2.305-0.852c0.867,0.398,1.25,1.43,0.85,2.301
						c-2.158,4.691-2.051,12.211,0.258,17.881c1.154,2.834,3.379,6.543,7.414,8.089c3.176,1.218,7.031,0.544,10.057-1.751
						c2.93-2.22,4.494-5.508,4.189-8.786c-0.088-0.956,0.611-1.802,1.566-1.891c0.967-0.091,1.801,0.611,1.891,1.567
						c0.416,4.484-1.656,8.926-5.549,11.877C905.041,179.078,901.895,180.127,898.82,180.127z"/>
					<path d="M879.285,178.822c-0.998,0-1.973-0.146-2.869-0.451c-2.627-0.896-4.268-2.984-4.619-5.876
						c-0.117-0.95,0.563-1.815,1.514-1.931c0.941-0.113,1.818,0.562,1.934,1.514c0.188,1.561,0.938,2.545,2.295,3.008
						c2.125,0.727,5.213-0.059,6.885-1.748c0.98-0.992,1.268-2.088,0.855-3.259c-0.32-0.903,0.152-1.894,1.057-2.213
						c0.902-0.32,1.893,0.153,2.213,1.057c0.857,2.423,0.254,4.923-1.658,6.855C884.979,177.708,882.043,178.822,879.285,178.822z"
						/>
					<path d="M886.496,172.283c0.193-0.007-1.838,2.485-2.084,2.673c-1,0.763-2.438,1.504-3.686,1.729
						c-2.176,0.395-4.566-0.703-6.721-1.119c1.656,2.254,4.188,3.828,6.25,5.699c3.063,2.777,6.191,4.303,10.283,4.535
						c3.131,0.178,7.016-0.881,9.689-2.47c3.076-1.828,4.473-4.667,7.035-6.962c-3.354,1.639-8.646,0.455-12.313,0.234
						c-1.951-0.117-2.764-0.244-4.35-1.415C889.34,174.255,888.125,172.232,886.496,172.283z"/>
				</g>
				<path fill="#FBB040" d="M907.795,85.968c3.658,10.271-16.631,16.417-14.148,3.672C895.031,82.524,904.865,77.75,907.795,85.968z
					"/>
				<path fill="#FBB040" d="M870.418,85.968c-3.656,10.271,16.629,16.417,14.148,3.672C883.184,82.524,873.35,77.75,870.418,85.968z
					"/>
				<path fill="#512E14" d="M1000.371,96.652c-0.102,1.479-0.377,2.898-0.855,4.23C991.123,124.154,945.32,94.1,938,83.785
					c-9.271-13.063-1.209-23.486,12.742-27.52c15.275-4.415,27.947,3.698,38.398,14.19
					C994.887,76.225,1000.996,87.5,1000.371,96.652z"/>
				<path fill="#512E14" d="M784.578,96.652c0.098,1.479,0.373,2.898,0.852,4.23c8.393,23.271,54.197-6.783,61.516-17.098
					c9.273-13.063,1.211-23.486-12.744-27.52c-15.271-4.415-27.943,3.698-38.395,14.19C790.063,76.225,783.951,87.5,784.578,96.652z
					"/>
				<path d="M838.299,109.802c-0.488,2.009-0.506,4.143-0.357,6.023c0.24,3.077,7.605-2.99,7.58-2.976
					c1.627-0.861,2.303-1.757,4.549-1.479c3.074,0.384,7.955,7.616,9.787,2.083c1.965-5.931-6.244-12.422-13.838-10.906
					C841.211,103.505,839.107,106.488,838.299,109.802z"/>
				<ellipse cx="927.699" cy="110.217" rx="7.967" ry="17.168"/>
			</g>
		</g>
		<g>
			<g>
				<path fill="#2B2D30" d="M782.014,274.762c-10.191,3.085-25.098,0.773-27.701-10.219c-2.045-8.637,9.322-10.668,14.545-13.154
					c4.936-2.352,10.029-5.713,13.932-9.574c3.361-3.329,6.514-6.912,9.244-10.692c3.703-5.129,8.633-10.724,10.545-16.64
					c0.768,4.309-1.109,8.584-1.48,12.491c2.5-2.876,4.703-5.592,6.84-8.99c0.348,7.927,0.893,15.382-0.412,23.052
					c1.102-1.751,2.221-3.566,3.451-5.184c-3.088,14.971-10.85,27.324-23.158,36.168
					C786.223,273.166,784.23,274.092,782.014,274.762z"/>
			</g>
			<g>
				<path fill="#2B2D30" d="M693.814,282.406c2.035-13.896-1.936-41.589-22.775-30.008c-19.178,10.654-18.313,37.541-15.682,55.946
					c1.615,11.316,8.768,25.583,21.717,15.871C691.07,313.723,691.52,298.087,693.814,282.406z"/>
				<path fill="#2B2D30" d="M743.918,282.406c-2.033-13.896,1.936-41.589,22.779-30.008c19.176,10.654,18.311,37.541,15.682,55.946
					c-1.621,11.316-8.77,25.583-21.719,15.871C746.664,313.723,746.215,298.087,743.918,282.406z"/>
				<path fill="#58595B" d="M763.025,231.604c-16.92-9.529-35.051-8.17-53.734-8.483c-17.676-0.295-36.188,8.296-46.201,22.177
					c-8.971,12.429-8.365,40.574,2.68,52.112c13.959,14.587,43.984,13.147,63.311,13.279c17.84,0.125,33.979-7.313,45.273-20.098
					c8.496-9.611,12.885-34.429,6.412-46.409C777.422,237.996,769.518,235.26,763.025,231.604z"/>
				<path fill="#58595B" d="M695.773,266.714c-4.713-10.471-15.002-14.434-21.785-5.647c-5.992,7.764-4.756,20.717-3.916,30.677
					c1.115,13.224-2.24,31.36,3.529,43.32c8.336,17.271,24.24,1.922,27.357-11.27C704.684,308.032,702.166,280.921,695.773,266.714z
					"/>
				<path fill="#58595B" d="M748.045,266.714c4.711-10.471,14.998-14.434,21.781-5.647c5.998,7.764,4.758,20.717,3.918,30.677
					c-1.113,13.224,2.24,31.36-3.527,43.32c-8.338,17.271-24.242,1.922-27.357-11.27
					C739.133,308.032,741.65,280.921,748.045,266.714z"/>
				<path fill="#2B2D30" d="M781.803,246.445c-0.309-0.795-0.65-1.553-1.037-2.264c-3.344-6.186-11.248-8.922-17.74-12.578
					c-16.92-9.529-35.051-8.17-53.734-8.483c-17.676-0.295-36.188,8.296-46.201,22.177c-1.195,1.655-2.215,3.594-3.068,5.73
					c5.969,6.237,11.662,10.275,17.686,12.888c4.352,4.659,9.979,8.45,16.555,10.905c7.389,2.756,14.209,4.693,22.189,4.787
					c12.635,0.154,27.602-0.687,38.168-8.463c2.447-1.803,4.342-4.508,5.787-7.65C768.777,260.242,776.061,254.973,781.803,246.445z
					"/>
				<path fill="#58595B" d="M786.119,152.838c11.52,19.604,9.023,56.162,2.969,73.543c-0.943,2.709-2.029,5.365-3.275,7.945
					c-13.955,28.927-41.172,29.31-71.213,29.271c-25.277-0.031-39.586-0.806-56.678-19.939
					c-13.576-15.201-12.158-37.903-11.482-57.003c1.467-41.202,26.873-55.416,80.094-52.903c16.73,0.789,38.773,0.357,52.297,10.624
					C781.715,146.564,784.125,149.446,786.119,152.838z"/>
			</g>
			<g>
				<path fill="#58595B" d="M818.266,157.376c-1.434,5.419-3.898,10.368-7.676,13.394c-9.613,7.684-22.82,10.699-34.037,5.393
					c-5.391-2.551-12.512-4.825-14.896-10.854c-2.42-6.111,2.189-14.26,3.268-20.412c1.479-8.443,3.805-16.707,6.227-24.926
					c2.02-6.856,5.023-13.609,6.795-20.437c1.068-4.108,0.012-6.017,4.432-5.421c10.533,1.423,23.023,15.318,28.807,23.497
					c4.357,6.168,7.211,13.373,8.273,20.922C820.203,143.852,819.963,150.943,818.266,157.376z"/>
				<path fill="#2B2D30" d="M782.158,128.258c1.189-7.279,2.92-14.175,5.244-21.629c11.375,8.571,21.531,22.329,22.633,36.816
					c0.824,10.835-3.416,18.56-11.35,25.199c-0.533-1.809,0.047-3.511-0.34-5.318c-2.654,0.315-5.24,1.363-7.99,1.729
					c3.176-7.262-4.936-2.816-8.137-2.82c0.432-1.136,0.473-2.466,0.803-3.548c-0.51,1.672-7.539,3.811-8.885,4.725
					c6.426-4.358,6.184-19.686,6.873-26.465C781.313,133.955,781.695,131.079,782.158,128.258z"/>
			</g>
			<g>
				<path fill="#58595B" d="M624.875,156.57c1.434,5.418,3.896,10.37,7.676,13.393c9.613,7.684,22.822,10.701,34.037,5.394
					c5.391-2.55,12.512-4.823,14.898-10.853c2.418-6.111-2.191-14.26-3.27-20.414c-1.479-8.441-3.803-16.705-6.225-24.925
					c-2.021-6.855-5.025-13.608-6.797-20.436c-1.068-4.108-0.012-6.018-4.432-5.42c-10.535,1.423-23.025,15.317-28.807,23.496
					c-4.359,6.166-7.211,13.373-8.271,20.922C622.938,143.047,623.178,150.139,624.875,156.57z"/>
				<path fill="#2B2D30" d="M660.984,127.455c-1.193-7.279-2.924-14.176-5.246-21.63c-11.375,8.568-21.531,22.328-22.633,36.816
					c-0.824,10.834,3.416,18.559,11.35,25.197c0.533-1.808-0.049-3.51,0.342-5.317c2.652,0.313,5.24,1.362,7.988,1.729
					c-3.176-7.262,4.936-2.818,8.137-2.822c-0.432-1.136-0.473-2.467-0.801-3.548c0.508,1.671,7.533,3.811,8.883,4.726
					c-6.426-4.357-6.186-19.687-6.873-26.467C661.828,133.148,661.445,130.272,660.984,127.455z"/>
			</g>
			<g>
				<path fill="#BCC3CC" d="M679.684,258.621c4.297,4.785,9.941,8.676,16.557,11.166c7.211,2.715,13.863,4.622,21.65,4.715
					c12.324,0.15,26.926-0.678,37.236-8.336c8.119-6.035,10.174-22.225,8.916-31.609c-1.381-10.316-5.061-20.984-14.857-25.625
					c-9.924-4.701-19.008-9.755-30.268-9.847c-5.564-0.044-10.453-0.012-15.688,1.843c-7.875,2.795-19.893,6.251-25.139,13.264
					C666.656,229.488,669.063,246.798,679.684,258.621z"/>
				<path fill="#BCC3CC" d="M774.068,178.276c-1.398-6.728-6.361-15.706-14.83-17.173c-4.814-0.832-10.895,1.592-14.885,3.814
					c-6.703,3.731-13.451,11.714-20.139,14.229c0.648-0.245-3.725-15.385-4.484-17.057c-1.975,0.688-2.486,2.776-3.102,4.731
					c-1.291,4.091-2.66,8.052-3.275,12.325c-6.688-2.515-13.436-10.497-20.139-14.229c-3.986-2.223-10.068-4.646-14.883-3.814
					c-8.469,1.467-13.432,10.445-14.832,17.173c-1.721,8.269-2.664,16.569,2.771,23.989c7.178,9.804,24.846,16.442,37.232,18.193
					c5.785,0.814,10.484,0.822,15.281,0.124c4.795,0.698,9.494,0.69,15.279-0.124c12.387-1.751,30.053-8.39,37.234-18.193
					C776.734,194.846,775.787,186.545,774.068,178.276z"/>
				<g>
					<path d="M763.771,188.305c0,8.67-3.229,15.701-7.221,15.701c-3.982,0-7.211-7.031-7.211-15.701
						c0-8.673,3.229-15.701,7.211-15.701C760.543,172.604,763.771,179.632,763.771,188.305z"/>
					<path d="M688.193,188.186c0,8.67-3.232,15.699-7.219,15.699c-3.982,0-7.213-7.029-7.213-15.699
						c0-8.674,3.23-15.703,7.213-15.703C684.961,172.482,688.193,179.512,688.193,188.186z"/>
					<g>
						<ellipse cx="717.396" cy="220.523" rx="18.766" ry="8.451"/>
						<path d="M727.732,255.787c-1.465,0-2.908-0.255-4.264-0.778c-3.859-1.493-6.906-4.776-8.809-9.495
							c-2.518-6.236-2.594-14.278-0.188-19.558c0.377-0.823,1.346-1.188,2.162-0.806c0.814,0.379,1.176,1.354,0.799,2.18
							c-2.025,4.446-1.926,11.571,0.242,16.941c1.082,2.691,3.172,6.201,6.957,7.665c2.984,1.156,6.6,0.521,9.441-1.657
							c2.748-2.104,4.217-5.217,3.932-8.326c-0.084-0.905,0.574-1.706,1.471-1.793c0.904-0.083,1.689,0.582,1.771,1.486
							c0.393,4.252-1.553,8.456-5.207,11.254C733.568,254.795,730.615,255.787,727.732,255.787z"/>
						<path d="M709.396,254.553c-0.938,0-1.852-0.139-2.693-0.43c-2.465-0.851-4.008-2.824-4.336-5.564
							c-0.107-0.9,0.527-1.722,1.42-1.832c0.883-0.105,1.707,0.533,1.814,1.436c0.178,1.48,0.885,2.412,2.152,2.852
							c1.996,0.686,4.895-0.059,6.465-1.66c0.918-0.938,1.189-1.975,0.801-3.084c-0.301-0.857,0.145-1.795,0.992-2.1
							c0.85-0.301,1.779,0.148,2.08,1.002c0.803,2.299,0.234,4.664-1.559,6.496C714.74,253.498,711.984,254.553,709.396,254.553z"/>
					</g>
				</g>
			</g>
		</g>
		<g>
			<path fill="#414042" d="M164.023,164.639c17.409-10.382,36.369-9.439,55.857-10.251c18.439-0.769,37.983,7.716,48.796,21.94
				c9.685,12.737,9.787,42.127-1.44,54.458c-14.19,15.586-45.563,14.864-65.729,15.507c-18.613,0.594-35.65-6.748-47.77-19.797
				c-9.117-9.809-14.347-35.596-7.902-48.268C149.164,171.686,157.343,168.625,164.023,164.639z"/>
			<path fill="#414042" d="M272.249,198.643c-11.249,4.132-21.723-0.647-20.126-12.123c1.414-10.141,11.981-18.682,20.022-25.328
				c10.679-8.83,21.754-24.576,34.89-29.01c18.971-6.398,19.14,16.676,11.577,28.637
				C309.575,175.107,287.518,193.035,272.249,198.643z"/>
			<path fill="#2B2B2B" d="M144.813,180.619c0.301-0.838,0.639-1.639,1.021-2.391c3.329-6.543,11.508-9.604,18.188-13.59
				c17.409-10.382,36.369-9.439,55.857-10.251c18.439-0.769,37.983,7.716,48.796,21.94c1.291,1.697,2.404,3.695,3.351,5.902
				c-6.067,6.666-11.903,11.027-18.123,13.908c-4.419,4.977-10.193,9.08-16.992,11.813c-7.642,3.07-14.706,5.268-23.034,5.576
				c-13.181,0.488-28.823-0.001-40.054-7.842c-2.601-1.814-4.649-4.59-6.238-7.834C158.768,194.68,151.027,189.369,144.813,180.619z
				"/>
			<path fill="#414042" d="M137.871,83.039c-11.511,20.759-7.957,58.848-1.187,76.828c1.057,2.803,2.261,5.547,3.626,8.207
				c15.318,29.824,43.734,29.518,75.085,28.696c26.38-0.69,41.291-1.872,58.632-22.289c13.771-16.214,11.702-39.872,10.498-59.788
				c-2.603-42.96-48.405-55.461-84.965-53.125c-17.449,1.115-40.456,1.383-54.303,12.449
				C142.305,76.378,139.862,79.448,137.871,83.039z"/>
			<path d="M162.385,118.092c0.229,9.188,3.871,16.549,8.139,16.441c4.261-0.105,7.532-7.641,7.303-16.826
				c-0.229-9.189-3.872-16.551-8.134-16.445C165.427,101.369,162.156,108.902,162.385,118.092z"/>
			<path fill="#BCBEC0" d="M254.193,190.352c-4.471,5.187-10.402,9.455-17.414,12.271c-7.641,3.071-14.706,5.269-23.034,5.576
				c-13.181,0.486-28.821-0.002-40.054-7.842c-12.359-8.627-14.96-37.83-5.462-49.144c5.479-6.526,16.003-7.462,22.853-12.05
				c9.32-6.249,7.038-12.592,11.335-21.598c3.591-7.528,11.446-9.974,16.754-2.861c4.745,6.363,5.54,20.031,13.169,22.729
				c8.535,3.012,19.843,2.459,25.764,9.737C267.925,159.239,263.399,179.676,254.193,190.352z"/>
			
				<ellipse transform="matrix(-0.9997 0.0249 -0.0249 -0.9997 504.7024 225.218)" cx="250.948" cy="115.753" rx="7.722" ry="16.643"/>
			<g>
				
					<ellipse transform="matrix(-0.9997 0.0249 -0.0249 -0.9997 429.3851 296.6338)" cx="212.846" cy="150.99" rx="20.08" ry="8.96"/>
				<path d="M202.72,188.633c1.566-0.039,3.104-0.35,4.542-0.941c4.088-1.684,7.262-5.246,9.172-10.296
					c2.527-6.674,2.396-15.196-0.316-20.725c-0.427-0.865-1.47-1.222-2.336-0.798c-0.861,0.424-1.22,1.469-0.795,2.332
					c2.284,4.656,2.365,12.208,0.188,17.957c-1.088,2.877-3.228,6.654-7.238,8.307c-3.162,1.305-7.046,0.725-10.145-1.504
					c-2.994-2.156-4.647-5.416-4.424-8.718c0.063-0.961-0.662-1.792-1.621-1.858c-0.972-0.066-1.794,0.66-1.857,1.621
					c-0.306,4.514,1.887,8.92,5.867,11.785C196.451,187.735,199.638,188.709,202.72,188.633z"/>
				<path d="M222.303,186.834c1.002-0.025,1.98-0.197,2.87-0.525c2.615-0.968,4.21-3.103,4.49-6.014
					c0.093-0.957-0.609-1.81-1.567-1.902c-0.948-0.09-1.811,0.609-1.903,1.567c-0.15,1.573-0.88,2.579-2.227,3.079
					c-2.117,0.781-5.235,0.071-6.959-1.584c-1.009-0.971-1.326-2.064-0.938-3.249c0.299-0.915-0.202-1.898-1.117-2.196
					c-0.915-0.299-1.899,0.201-2.197,1.116c-0.8,2.456-0.131,4.95,1.84,6.842C216.559,185.857,219.533,186.902,222.303,186.834z"/>
			</g>
			<g>
				<path fill="#414042" d="M113.295,93.468c1.602,2.384,3.203,4.77,4.795,7.153c3.63,5.434,7.833,10.058,14.224,12.491
					c5.606,2.136,11.438,0.774,16.2-2.658c5.381-3.88,7.348-9.468,11.46-14.254c3.396-3.95,7.612-5.481,8.991-11.037
					c1.55-6.262-2.021-12.293-6.4-16.557c-2.245-2.189-4.526-5.078-7.206-6.571c-3.783-2.108-8.751-4.08-12.925-5.344
					c-6.367-1.93-12.962-2.188-19.557-2.844c-6.8-0.678-13.886-0.643-20.728-0.443c-5.11,0.15-10.369-0.328-15.377,0.794
					c1.493,2.987,4.551,6.035,6.42,9.044c2.963,4.765,6.022,9.352,9.163,14.014C105.994,82.656,109.654,88.062,113.295,93.468z"/>
				<path d="M153.403,72.65c-5.48-4.143-12.193-5.4-18.655-7.075c-10.837-2.81-22.387-6.789-33.688-4.234
					c0.211-0.047,6.942,13.584,7.499,15.021c1.546,4.005,11.479,17.924,14.989,20.679c3.213,2.522,6.544,3.581,9.4,6.856
					c0.679-2.349,0.077-5.081,0.6-7.601c0.603-2.933,1.921-5.938,3.421-8.574C138.784,84.539,149.626,73.042,153.403,72.65z"/>
			</g>
			<g>
				<path fill="#414042" d="M299.692,88.818c-1.482,2.46-2.963,4.923-4.432,7.382c-3.357,5.608-7.323,10.436-13.585,13.186
					c-5.494,2.413-11.386,1.344-16.313-1.847c-5.565-3.607-7.811-9.091-12.155-13.665c-3.587-3.776-7.875-5.095-9.531-10.576
					c-1.862-6.175,1.406-12.378,5.568-16.856c2.134-2.297,4.265-5.297,6.868-6.92c3.672-2.294,8.535-4.511,12.643-5.981
					c6.262-2.246,12.835-2.832,19.392-3.817c6.758-1.016,13.834-1.334,20.679-1.476c5.109-0.104,10.34-0.845,15.395,0.026
					c-1.339,3.059-4.242,6.254-5.96,9.352c-2.72,4.907-5.548,9.642-8.45,14.455C306.444,77.655,303.059,83.237,299.692,88.818z"/>
				<path d="M258.596,70.026c5.266-4.411,11.907-6.001,18.277-7.998c10.683-3.346,22.021-7.896,33.436-5.909
					c-0.213-0.037-6.256,13.914-6.739,15.376c-1.345,4.077-10.571,18.474-13.94,21.4c-3.084,2.68-6.357,3.904-9.048,7.316
					c-0.794-2.312-0.329-5.071-0.975-7.562c-0.751-2.899-2.216-5.836-3.847-8.393C273.789,81.17,262.388,70.229,258.596,70.026z"/>
			</g>
		</g>
		<g>
			<path fill="#56908A" d="M427.945,257.948c-17.663-9.944-36.594-8.528-56.095-8.854c-18.452-0.309-37.777,8.661-48.233,23.15
				c-9.364,12.976-8.732,42.358,2.798,54.405c14.575,15.229,45.919,13.722,66.095,13.864c18.622,0.129,35.472-7.636,47.263-20.981
				c8.869-10.035,13.454-35.944,6.694-48.45C442.978,264.622,434.725,261.766,427.945,257.948z"/>
			<path fill="#2E5953" d="M447.521,273.377c-0.315-0.805-0.664-1.574-1.054-2.295c-3.489-6.46-11.742-9.316-18.521-13.134
				c-17.663-9.944-36.594-8.528-56.095-8.854c-18.452-0.309-37.777,8.661-48.233,23.15c-1.232,1.707-2.289,3.707-3.172,5.907
				c10.809,11.287,20.75,15.659,33.138,17.351c1.208,1.306,2.414,2.58,3.605,3.771c3.737,3.744,8.985,7.506,13.545,10.229
				c0.831-1.875,0.884-4.233,1.382-6.354c3.036,1.859,6.326,7.348,8.185,10.169c0.517-2.868,0.87-5.878,1.608-8.731
				c0.739,2.854,1.092,5.863,1.609,8.731c1.857-2.821,5.147-8.31,8.185-10.169c0.499,2.121,0.551,4.479,1.381,6.354
				c4.561-2.724,9.809-6.485,13.546-10.229c1.375-1.377,2.771-2.859,4.164-4.387C425.622,292.523,438.425,286.862,447.521,273.377z"
				/>
			<path fill="#56908A" d="M452.055,175.722c-2.08-3.539-4.598-6.55-7.608-8.835c-14.12-10.717-37.125-10.41-54.596-11.092
				c-36.608-1.422-82.085,12.217-83.613,55.23c-0.708,19.939-2.188,43.643,11.987,59.506c11.687,13.086,22.129,17.947,35.358,19.754
				c1.208,1.307,2.414,2.579,3.605,3.772c3.737,3.744,8.985,7.505,13.545,10.229c0.831-1.877,0.884-4.234,1.382-6.356
				c3.036,1.861,6.326,7.349,8.185,10.171c0.517-2.869,0.87-5.879,1.608-8.733c0.739,2.854,1.092,5.864,1.609,8.733
				c1.857-2.822,5.147-8.31,8.185-10.171c0.499,2.122,0.551,4.479,1.381,6.356c4.561-2.725,9.809-6.485,13.546-10.229
				c1.375-1.376,2.771-2.86,4.164-4.386c17.288-2.756,31.826-9.983,40.943-28.88c1.299-2.693,2.435-5.466,3.421-8.296
				C461.477,234.352,464.08,196.187,452.055,175.722z"/>
			<path fill="#56908A" d="M432.706,162.135c-5.776-1.977-11.611-3.121-17.726-4.423c-1.116-3.23-1.393-6.601-2.152-9.899
				c-4.24,0.38-5.231,5.57-7.527,8.246c-1.301-2.937-1.825-6.122-3.104-9.237c-4.242,1.262-6.906,6.157-9.688,9.06
				c-2.038-3.057-2.591-5.871-4.157-8.756c-3.852,1.037-4.919,6.221-7.144,8.895c-1.163-2.646-2.637-5.457-4.297-8.223
				c-4.583,1.208-4.378,8.314-7.53,10.531c-2.386-3.436-3.623-7.266-5.795-10.836c-5.561,5.148-6.365,10.879-12.539,14.902
				L432.706,162.135z"/>
			<g>
				<path fill="#4E9086" d="M483.343,187.876c-7.774,7.889-15.214,12.396-26.746,14.343c-8.997,1.518-22.64,3.041-30.406-3.107
					c-7.91-6.264-5.045-16.392-0.487-23.775c2.475-4.012,5.336-7.431,9.116-10.105c3.621-2.566,7.137-6.59,11.143-8.615
					c4.505-2.277,9.623-3.255,14.6-4.098c8.487-1.44,20.191-1.969,26.979,4.436c-2.299-0.073-5.348,0.174-7.344,1.324
					c4.318,2.215,9.894,5.854,11.192,10.581c-2.491,0.449-5.251,0.546-7.698,0.593c4.396,3.342,7.7,6.775,10.932,11.41
					c-4.538,1.016-6.246,1.672-9.472,5.129C484.547,186.639,483.944,187.268,483.343,187.876z"/>
				<path fill="#2E5953" d="M460.686,166.637c5.813-1.348,12.145-0.88,17.462,1.189c-1.369,0.992-3.286,2.114-5.125,2.547
					c2.454,2.313,5.624,4.033,7.896,6.848c-2.318,0.335-4.674,0.703-6.941,1.209c1.602,2.914,8.708,4.238,4.161,7.019
					c-1.58,0.966-4.589,0.556-6.38,1.072c-2.581,0.744-4.858,2.046-7.133,3.491c-5.608,3.559-10.212,6.193-15.836,1.072
					c-3.968-3.617-5.784-8.566-3.176-13.492C448.759,171.65,454.423,168.089,460.686,166.637z"/>
			</g>
			<g>
				<path fill="#4E9086" d="M281.813,187.876c7.774,7.889,15.216,12.396,26.745,14.343c8.998,1.518,22.642,3.041,30.407-3.107
					c7.91-6.264,5.046-16.392,0.487-23.775c-2.476-4.012-5.336-7.431-9.116-10.105c-3.62-2.566-7.137-6.59-11.144-8.615
					c-4.505-2.277-9.621-3.255-14.598-4.098c-8.488-1.44-20.19-1.969-26.979,4.436c2.299-0.073,5.347,0.174,7.343,1.324
					c-4.316,2.215-9.894,5.854-11.191,10.581c2.491,0.449,5.251,0.546,7.696,0.593c-4.394,3.342-7.699,6.775-10.931,11.41
					c4.54,1.016,6.246,1.672,9.474,5.129C280.61,186.639,281.212,187.268,281.813,187.876z"/>
				<path fill="#2E5953" d="M304.469,166.637c-5.813-1.348-12.145-0.88-17.461,1.189c1.37,0.992,3.285,2.114,5.125,2.547
					c-2.454,2.313-5.625,4.033-7.896,6.848c2.317,0.335,4.673,0.703,6.942,1.209c-1.604,2.914-8.708,4.238-4.162,7.019
					c1.579,0.966,4.589,0.556,6.38,1.072c2.581,0.744,4.858,2.046,7.134,3.491c5.607,3.559,10.21,6.193,15.834,1.072
					c3.969-3.617,5.783-8.566,3.176-13.492C316.396,171.65,310.732,168.089,304.469,166.637z"/>
			</g>
			<g>
				<path d="M428.423,213.705c0-10.469-3.458-18.955-7.725-18.955c-4.264,0-7.721,8.486-7.721,18.955
					c0,1.607,0.091,3.161,0.245,4.65h14.955C428.332,216.866,428.423,215.313,428.423,213.705z"/>
				<path d="M339.828,194.605c-4.265,0-7.722,8.484-7.722,18.954c0,1.66,0.098,3.262,0.26,4.796h14.928
					c0.162-1.534,0.258-3.136,0.258-4.796C347.552,203.09,344.094,194.605,339.828,194.605z"/>
			</g>
			<g>
				<ellipse cx="378.991" cy="244.971" rx="18.522" ry="8.264"/>
				<path d="M401.979,280.99c-0.481,0-1.191-0.139-2.454-0.387c-3.892-0.762-11.988-2.342-17.695-1.391
					c-0.873,0.145-2.17-0.029-3.427-1.676c-3.572-4.677-5.456-20.385-2.295-27.256c0.369-0.805,1.324-1.16,2.131-0.786
					c0.808,0.37,1.159,1.326,0.789,2.132c-2.29,4.975-1.426,16.25,0.889,21.99c0.739,1.832,1.325,2.311,1.476,2.409
					c6.277-1.016,14.694,0.629,18.749,1.423c0.664,0.127,1.345,0.264,1.663,0.31c0.92-0.098,1.779,0.652,1.781,1.599
					c0,0.48-0.223,0.947-0.594,1.252C402.674,280.869,402.423,280.99,401.979,280.99z"/>
				<path d="M362.19,280.619c-0.757,0-1.428-0.534-1.577-1.304c-0.167-0.872,0.403-1.715,1.274-1.883
					c2.685-0.517,5.372-0.704,7.739-0.87c3.031-0.213,6.464-0.45,7.111-1.436c0.278-0.424,0.027-1.314-0.148-1.807
					c-0.295-0.838,0.142-1.758,0.98-2.053c0.836-0.297,1.755,0.143,2.05,0.979c0.664,1.873,0.6,3.435-0.194,4.644
					c-1.521,2.318-5.073,2.565-9.574,2.881c-2.279,0.158-4.862,0.339-7.355,0.818C362.392,280.609,362.29,280.619,362.19,280.619z"
					/>
			</g>
			<path fill="#76B7AF" d="M379.449,231.787c-1.297,1.215-2.663,2.387-4.031,2.968c0.441-1.501,0.795-3.312,0.948-4.815
				c-3.385,1.719-7.033,3.894-10.706,5.375c1.081-1.84,1.864-3.744,2.439-5.841c-4.019,2.093-7.609,5.354-12.466,6.468
				c0.636-0.963,3.281-2.564,4.521-3.975c3.173-3.604,4.367-9.096,5.93-13.527c1.503-4.258,2.606-9.119,2.269-13.656
				c-0.175-2.303-0.268-11.007-1.631-12.557c2.017,2.29,2.495,5.676,3.708,8.401c3.006-1.562,3.406-7.872,6.623-10.244
				c0.596,2.604,0.65,7.614,2.701,9.126c0.461,0.339,3.542-6.867,4.477-6.992c2.447-0.328,3.032,5.811,3.384,7.416
				c2.326-0.706,3.352-6.276,4.039-8.594c-0.754,2.543,1.926,8.516,2.508,11.141c0.89,4.012,1.719,8.07,1.929,12.186
				c0.312,5.99,1.186,15.455-3.326,20.149c-0.125-2.655-2.711-4.286-3.642-6.593c-1.737,1.799-3.311,4.355-3.844,6.732
				c-1.149-1.27-2.096-3.852-3.173-5.642C381.269,230.025,380.374,230.919,379.449,231.787z"/>
		</g>
		<g>
			<path fill="#B22F0B" d="M630.07,226.229c-0.246,0.417-0.49,0.807-0.729,1.163c-4.051,6.046-11.814,8.925-18.961,8.683
				c-7.041-0.235-11.754-7.345-5.254-12.441c4.58-3.586,10.59-3.426,15.809-5.859c3.957-1.846,8.088-4.001,11.873-5.995
				C634.805,215.748,632.391,222.268,630.07,226.229z"/>
			<g>
				<path fill="#E8633A" d="M591.465,189.59c-18.412-10.369-38.148-8.895-58.478-9.231c-19.24-0.323-39.388,9.028-50.283,24.134
					c-9.765,13.527-9.104,44.158,2.917,56.717c15.192,15.873,47.842,18.45,68.875,18.594c19.412,0.139,38.725-7.535,51.018-21.449
					c9.242-10.457,12.307-42.036,5.26-55.074C607.135,196.548,598.529,193.568,591.465,189.59z"/>
				<path fill="#8C1F06" d="M611.9,205.743c-0.336-0.866-0.709-1.69-1.127-2.464c-3.639-6.731-12.244-9.711-19.309-13.689
					c-18.412-10.369-38.148-8.895-58.478-9.231c-19.24-0.323-39.388,9.028-50.283,24.134c-1.302,1.801-2.411,3.913-3.339,6.238
					c6.495,6.788,12.692,11.184,19.246,14.025c4.738,5.07,10.859,9.199,18.018,11.867c8.043,3.002,15.464,5.107,24.15,5.211
					c13.748,0.168,30.037-0.748,41.537-9.211c2.662-1.959,4.729-4.905,6.299-8.328C597.725,220.76,605.652,215.023,611.9,205.743z"
					/>
				<path fill="#E8633A" d="M616.598,103.869c12.537,21.334,9.822,61.122,3.234,80.038c-1.027,2.947-2.211,5.838-3.566,8.647
					c-15.189,31.479-44.809,31.897-77.502,31.856c-27.51-0.032-43.081-0.877-61.686-21.703
					c-14.772-16.541-13.232-41.25-12.494-62.037c1.597-44.838,49.005-59.058,87.166-57.574c18.215,0.71,42.197,0.39,56.916,11.563
					C611.805,97.041,614.43,100.18,616.598,103.869z"/>
				<path fill="#FFC78A" d="M498.162,218.73c4.793,5.288,11.087,9.584,18.467,12.336c8.043,3.003,15.464,5.107,24.15,5.212
					c13.748,0.166,30.037-0.751,41.537-9.212c9.061-6.666,11.35-24.557,9.947-34.926c-1.541-11.398-5.646-23.185-16.574-28.314
					c-11.07-5.194-21.201-10.775-33.764-10.881c-6.205-0.049-11.661-0.009-17.496,2.04c-8.785,3.087-22.194,6.906-28.043,14.655
					C483.628,186.54,486.315,205.666,498.162,218.73z"/>
				<path fill="#FFC78A" d="M552.092,116.699c1.203-11.207,6.209-20.565,9.266-31.299c0.184-0.649,0.35-1.301,0.494-1.954
					c-3.49-0.13-6.887-0.224-10.102-0.35c-7.992-0.312-16.388,0.079-24.683,1.282c1.151,5.952,3.809,12.056,4.267,17.378
					c0.556,6.442-0.032,13.189-0.025,19.66c0.01,10.415-1.495,20.755-3.475,30.786c-1.756,8.892-3.388,16.399,5.948,21.169
					c6.28,3.211,20.798,4.48,20.782-5.828c-0.008-3.871-2.666-6.213-3.572-9.787c-0.869-3.422-0.385-7.782-0.385-11.49
					C550.607,136.29,551.039,126.489,552.092,116.699z"/>
				<g>
					<path d="M561.164,176.633c0,5.158-9.373,9.341-20.938,9.341c-11.558,0-20.929-4.183-20.929-9.341
						c0-5.156,9.371-9.338,20.929-9.338C551.791,167.295,561.164,171.477,561.164,176.633z"/>
					<path d="M551.762,215.601c-1.635,0-3.245-0.284-4.76-0.862c-4.304-1.649-7.704-5.277-9.826-10.491
						c-2.805-6.891-2.891-15.777-0.207-21.608c0.42-0.912,1.498-1.313,2.412-0.893c0.91,0.42,1.31,1.498,0.89,2.41
						c-2.259,4.911-2.148,12.785,0.271,18.719c1.211,2.973,3.539,6.853,7.762,8.47c3.326,1.276,7.361,0.573,10.529-1.832
						c3.066-2.325,4.705-5.765,4.387-9.2c-0.092-0.998,0.641-1.884,1.641-1.979c1.01-0.095,1.885,0.644,1.977,1.641
						c0.439,4.697-1.732,9.344-5.809,12.436C558.268,214.502,554.977,215.601,551.762,215.601z"/>
					<path d="M531.307,214.236c-1.047,0-2.067-0.154-3.006-0.475c-2.751-0.939-4.468-3.123-4.836-6.149
						c-0.12-0.996,0.59-1.902,1.584-2.024c0.987-0.117,1.904,0.59,2.023,1.586c0.198,1.636,0.984,2.664,2.403,3.151
						c2.227,0.757,5.458-0.064,7.211-1.835c1.022-1.035,1.325-2.183,0.894-3.408c-0.336-0.945,0.162-1.984,1.107-2.32
						c0.943-0.332,1.982,0.164,2.318,1.107c0.896,2.54,0.262,5.155-1.736,7.178C537.267,213.069,534.193,214.236,531.307,214.236z"
						/>
				</g>
				<path d="M574.166,140.836c-0.508,2.094-0.527,4.318-0.373,6.278c0.252,3.208,7.93-3.118,7.902-3.103
					c1.697-0.898,2.402-1.832,4.74-1.543c3.207,0.4,8.295,7.94,10.205,2.172c2.049-6.183-6.512-12.95-14.426-11.37
					C577.201,134.27,575.01,137.379,574.166,140.836z"/>
				<path d="M488.104,141.158c-0.509,2.096-0.527,4.32-0.373,6.279c0.249,3.208,7.93-3.117,7.901-3.103
					c1.697-0.897,2.403-1.831,4.741-1.542c3.206,0.4,8.294,7.939,10.205,2.172c2.047-6.184-6.512-12.949-14.426-11.37
					C491.139,134.594,488.944,137.703,488.104,141.158z"/>
			</g>
			<path fill="#B22F0B" d="M443.187,112.569c-4.141,7.985-7.604,17.479-9.533,26.05c-2.513,11.164-5.493,24.549-0.467,35.453
				c4.681,10.157,15.515,16.48,26.142,10.173c2.825-1.673,5.288-3.714,6.841-6.396c4.343-7.491,2.56-13.358,5.358-21.441
				c4.105-11.855,8.892-21.592,12.905-30.563c3.255-7.276,10.858-14.212,11.199-22.536c0.328-7.98-6.234-13.579-13.616-13.933
				c-15.729-0.752-29.758,6.949-37.464,20.669C444.09,110.867,443.635,111.71,443.187,112.569z"/>
			<path fill="#B22F0B" d="M645.701,112.569c4.143,7.985,7.604,17.479,9.535,26.05c2.512,11.164,5.492,24.549,0.465,35.453
				c-4.68,10.157-15.514,16.48-26.141,10.173c-2.824-1.673-5.287-3.714-6.84-6.396c-4.346-7.491-2.563-13.358-5.357-21.441
				c-4.105-11.855-8.893-21.592-12.908-30.563c-3.252-7.276-10.857-14.212-11.199-22.536c-0.326-7.98,6.236-13.579,13.617-13.933
				c15.729-0.752,29.758,6.949,37.465,20.669C644.799,110.867,645.254,111.71,645.701,112.569z"/>
		</g>
		<g>
			<path fill="#6B3917" d="M957.475,366.928c12.438-17.474,19.189-38.438,19.189-60.055c0-57.162-46.504-103.667-103.666-103.667
				c-42.365,0-79.803,25.328-95.752,63.878H316.858c-15.946-38.55-53.385-63.878-95.748-63.878
				c-57.162,0-103.667,46.505-103.667,103.667c0,23.635,7.911,46.15,22.463,64.429c-12.436,17.475-19.188,38.438-19.188,60.054
				c0,57.161,46.504,103.666,103.667,103.666c42.366,0,79.805-25.328,95.749-63.877h460.389
				c15.943,38.549,53.383,63.877,95.75,63.877c57.162,0,103.666-46.505,103.666-103.666
				C979.939,407.72,972.029,385.207,957.475,366.928z"/>
			<g>
				<path fill="#FFFFFF" d="M941.934,367.341c14.176-16.144,22.785-37.294,22.785-60.468c0-50.656-41.066-91.722-91.721-91.722
					c-40.949,0-75.615,26.837-87.408,63.877H308.516c-11.791-37.04-46.458-63.877-87.405-63.877
					c-50.657,0-91.722,41.065-91.722,91.722c0,24.909,9.942,47.485,26.059,64.014c-14.173,16.146-22.784,37.296-22.784,60.469
					c0,50.657,41.066,91.723,91.723,91.723c40.947,0,75.616-26.84,87.405-63.879h477.074c11.789,37.039,46.459,63.879,87.408,63.879
					c50.656,0,91.721-41.065,91.721-91.723C967.994,406.445,958.051,383.869,941.934,367.341z"/>
			</g>
			<path opacity="0.2" d="M970.209,431.247c-0.266-4.772-1.473-9.095-3.924-12.645c-1.609,2.714-1.898,5.63-3.307,8.765
				c-15.064,33.509-41.314,66.316-83.371,62.052c-17.602-1.784-39.535-9.032-53.84-20.328c-9.541-7.532-21.395-15.19-27.658-25.731
				c-2.256-3.795-12.172-27.771-6.828-30.882c-8.207,4.778-12.389,12.015-21.41,16.67c-9.254,4.775-17.994,4.762-28.463,5.334
				c-48.943,2.678-97.492-8.112-146.641-5.951c-51.824,2.281-103.612,5.939-155.51,5.951c-14.985,0.004-29.395-0.677-44.163-2.005
				c-15.19-1.366-29.859,0.987-44.993-0.027c-5.498-0.368-9.355-0.663-14.512-3.076c-3.178-1.486-7.714-7.341-10.115-8.125
				c-15.023-4.898-39.313,32.921-51.606,38.897c-14.794,7.191-31.795,11.354-47.544,12.907
				c-41.538,4.098-73.604-13.548-91.979-51.707c-12.814,18.026,6.689,52.447,17.98,66.764c17.287,21.923,44.14,34.969,72.062,34.969
				c40.946,0,75.615-26.84,87.404-63.879h477.074c11.789,37.039,46.459,63.879,87.406,63.879c26.543,0,52.191-11.772,69.514-31.879
				C955.549,479.869,971.34,451.5,970.209,431.247z"/>
			<path opacity="0.2" d="M934.809,436.292c-6.406,9.136-28.842-1.16-13.092-4.958C924.959,430.554,939.582,429.452,934.809,436.292
				z"/>
			<path opacity="0.2" d="M286.254,428.6c-6.405,9.134-28.84-1.16-13.092-4.958C276.406,422.86,291.028,421.759,286.254,428.6z"/>
			<path opacity="0.2" d="M356.2,415.38c-6.404,9.134-28.841-1.161-13.093-4.958C346.352,409.641,360.974,408.539,356.2,415.38z"/>
			<path opacity="0.2" d="M820.178,413.213c-6.404,9.135-28.842-1.161-13.092-4.958
				C810.328,407.474,824.951,406.373,820.178,413.213z"/>
			<path opacity="0.2" d="M160.271,409.134c-5.145,6.85-23.164-0.87-10.515-3.718C152.36,404.829,164.104,404.004,160.271,409.134z"
				/>
			<path opacity="0.2" d="M175.111,427.335c-3.632,4.28-16.35-0.543-7.422-2.323C169.528,424.645,177.816,424.129,175.111,427.335z"
				/>
			<path opacity="0.2" d="M904.498,415.317c-3.631,4.28-16.35-0.544-7.422-2.324C898.916,412.627,907.205,412.11,904.498,415.317z"
				/>
		</g>
		<ellipse fill="#E8633A" cx="614.748" cy="263.725" rx="25.658" ry="22.799"/>
		
			<ellipse transform="matrix(0.8444 -0.5358 0.5358 0.8444 14.9034 482.3081)" fill="#8E5225" cx="837.579" cy="215.503" rx="24.433" ry="17.896"/>
		<path fill="#E8633A" d="M508.431,265.73c0,12.592-11.487,22.8-25.657,22.8c-14.174,0-25.66-10.208-25.66-22.8
			s11.486-22.798,25.66-22.798C496.943,242.933,508.431,253.139,508.431,265.73z"/>
	</g>
	<g>
		<path opacity="0.2" d="M235.105,651.417c-4.233,2.8-39.546,4.896-40.014-0.806c-0.298-3.611,12.937-6.686,16.849-7.037
			C217.005,643.116,247.209,643.42,235.105,651.417z"/>
		<path opacity="0.2" d="M142.454,596.394c-3.287,1.748-30.697,3.06-31.062-0.505c-0.23-2.258,10.041-4.178,13.08-4.399
			C128.404,591.204,151.849,591.393,142.454,596.394z"/>
		<path opacity="0.2" d="M620.25,653.784c-3.287,1.747-30.697,3.06-31.063-0.506c-0.229-2.257,10.043-4.178,13.08-4.398
			C606.199,648.595,629.643,648.783,620.25,653.784z"/>
		<path opacity="0.2" d="M254.101,627.854c-0.284-2.257,36.013-6.177,25.428,5.568C275.292,638.126,255.046,635.3,254.101,627.854z"
			/>
		<path opacity="0.2" d="M390.763,690.624c-4.452,3.287-41.576,5.751-42.068-0.946c-0.313-4.24,13.6-7.851,17.715-8.265
			C371.731,680.877,403.486,681.233,390.763,690.624z"/>
		<path opacity="0.2" d="M410.733,662.956c-0.301-2.65,37.86-7.255,26.731,6.539C433.011,675.017,411.726,671.697,410.733,662.956z"
			/>
		<path opacity="0.2" d="M986.197,552.304c-0.299-2.65,37.861-7.255,26.732,6.538C1008.477,564.363,987.191,561.045,986.197,552.304
			z"/>
		<g>
			<path opacity="0.2" d="M1025.357,685.342c-4.234,2.799-39.545,4.897-40.016-0.807c-0.297-3.609,12.936-6.684,16.85-7.037
				C1007.256,677.042,1037.459,677.346,1025.357,685.342z"/>
			<path opacity="0.2" d="M926.098,641.68c-0.268-1.693,33.721-4.634,23.809,4.177C945.939,649.384,926.982,647.265,926.098,641.68z
				"/>
		</g>
		<path opacity="0.2" d="M686.031,619.454c-0.268-1.693,33.721-4.633,23.809,4.177C705.873,627.159,686.916,625.04,686.031,619.454z
			"/>
		<path opacity="0.2" d="M45.73,675.605c-0.269-1.693,33.719-4.633,23.808,4.177C65.572,683.311,46.615,681.191,45.73,675.605z"/>
		<path opacity="0.2" d="M794.449,696.081c-0.268-1.693,33.719-4.633,23.809,4.177C814.291,703.786,795.336,701.667,794.449,696.081
			z"/>
		<path opacity="0.2" d="M1028.65,570.037c-0.266-1.693,33.721-4.633,23.809,4.177
			C1048.492,577.742,1029.535,575.623,1028.65,570.037z"/>
	</g>
</g>
<g>
	<path d="M232.921,321.887h6.547l18.45,53.139l17.514-53.31h4.762l17.43,53.31l18.449-53.139h6.207l-22.19,62.32h-5.017
		l-17.43-51.778l-17.515,51.778h-4.931L232.921,321.887z"/>
	<path d="M326.443,361.251v-0.17c0-12.838,9.947-23.806,23.636-23.806c13.519,0,23.466,10.798,23.466,23.636v0.17
		c0,12.754-10.032,23.722-23.636,23.722S326.443,374.005,326.443,361.251z M367.509,361.251v-0.17
		c0-10.287-7.652-18.619-17.6-18.619c-10.288,0-17.515,8.332-17.515,18.449v0.17c0,10.288,7.652,18.535,17.685,18.535
		C360.282,379.616,367.509,371.284,367.509,361.251z"/>
	<path d="M384.17,361.251v-0.17c0-12.838,9.948-23.806,23.637-23.806c13.519,0,23.466,10.798,23.466,23.636v0.17
		c0,12.754-10.033,23.722-23.637,23.722S384.17,374.005,384.17,361.251z M425.235,361.251v-0.17c0-10.287-7.651-18.619-17.6-18.619
		c-10.287,0-17.514,8.332-17.514,18.449v0.17c0,10.288,7.651,18.535,17.685,18.535C418.009,379.616,425.235,371.284,425.235,361.251
		z"/>
	<path d="M447.424,343.481h-6.377v-5.101h6.377v-4.166c0-5.187,1.445-9.183,3.996-11.733c2.295-2.296,5.526-3.571,9.692-3.571
		c2.976,0,5.017,0.426,7.142,1.105v5.102c-2.466-0.766-4.336-1.105-6.632-1.105c-5.781,0-8.502,3.401-8.502,10.458v3.911h15.049
		v5.101H453.12v40.301h-5.696V343.481z"/>
	<path d="M474.205,361.166v-0.17c0-13.178,9.268-23.721,21.681-23.721c13.094,0,21.086,10.628,21.086,23.976
		c0,0.851,0,1.19-0.17,2.041h-36.729c0.935,10.458,8.417,16.494,16.834,16.494c6.547,0,11.138-2.891,14.879-6.802l3.656,3.316
		c-4.592,5.016-10.118,8.502-18.705,8.502C484.493,384.803,474.205,375.28,474.205,361.166z M511.02,358.701
		c-0.68-8.673-5.611-16.41-15.304-16.41c-8.417,0-14.794,6.973-15.644,16.41H511.02z"/>
	<path d="M530.063,338.381h5.697v12.328c3.4-7.822,10.457-13.434,19.215-13.094v6.122h-0.426c-10.202,0-18.789,7.566-18.789,21.681
		v18.364h-5.697V338.381z"/>
	<path d="M563.305,353.004v-0.17c0-17.515,13.858-31.968,32.903-31.968s32.733,14.198,32.733,31.798v0.17
		c0,17.515-13.858,31.969-32.903,31.969S563.305,370.604,563.305,353.004z M615.253,353.004v-0.17
		c0-10.883-7.992-19.979-19.215-19.979c-11.224,0-19.045,8.927-19.045,19.81v0.17c0,10.883,7.991,19.98,19.215,19.98
		C607.431,372.814,615.253,363.887,615.253,353.004z"/>
	<path d="M640.502,336.51h12.924v6.802c3.061-3.996,7.142-7.651,14.028-7.651c10.203,0,16.239,6.717,16.239,17.6v30.522H670.77
		v-26.441c0-6.547-3.146-10.033-8.502-10.033s-8.842,3.486-8.842,10.033v26.441h-12.924V336.51z"/>
	<path d="M693.895,360.401v-0.17c0-13.519,9.607-24.571,23.296-24.571c15.645,0,22.956,12.158,22.956,25.591
		c0,1.021-0.085,2.211-0.17,3.401h-33.244c1.275,6.462,5.697,9.777,11.903,9.777c4.677,0,7.992-1.445,11.733-4.932l7.396,6.547
		c-4.421,5.441-10.713,8.758-19.3,8.758C704.353,384.803,693.895,374.854,693.895,360.401z M727.563,356.575
		c-0.851-6.207-4.421-10.543-10.373-10.543c-5.781,0-9.607,4.166-10.628,10.543H727.563z"/>
	<path d="M747.201,377.575l5.611-8.587c5.102,3.741,10.543,5.696,14.964,5.696c4.081,0,6.037-1.53,6.037-3.825v-0.171
		c0-3.061-4.677-4.081-9.948-5.696c-6.717-1.955-14.283-5.016-14.283-14.113v-0.17c0-9.522,7.736-14.879,17.259-14.879
		c5.952,0,12.414,2.04,17.515,5.441l-4.931,8.927c-4.677-2.721-9.353-4.421-12.924-4.421c-3.4,0-5.271,1.53-5.271,3.571v0.17
		c0,2.806,4.677,4.081,9.863,5.866c6.631,2.126,14.368,5.271,14.368,13.943v0.17c0,10.373-7.822,15.135-18.024,15.135
		C760.805,384.633,753.408,382.422,747.201,377.575z"/>
	<path d="M796.258,319.336h13.604v11.563h-13.604V319.336z M796.683,336.51h12.839v47.272h-12.839V336.51z"/>
	<path d="M820.827,360.401v-0.17c0-13.519,9.607-24.571,23.296-24.571c15.645,0,22.956,12.158,22.956,25.591
		c0,1.021-0.085,2.211-0.17,3.401h-33.243c1.274,6.462,5.696,9.777,11.902,9.777c4.677,0,7.992-1.445,11.733-4.932l7.396,6.547
		c-4.421,5.441-10.713,8.758-19.3,8.758C831.285,384.803,820.827,374.854,820.827,360.401z M854.496,356.575
		c-0.851-6.207-4.421-10.543-10.373-10.543c-5.781,0-9.607,4.166-10.628,10.543H854.496z"/>
</g>
</svg>
